<svg width="292" height="292" viewBox="0 0 292 292" fill="none" xmlns="http://www.w3.org/2000/svg">
<g clip-path="url(#clip0_4_2)">
<path d="M132.412 291.398V290.861V290.323V289.786V289.248V288.71V288.173V287.635V287.098V286.56V286.023V285.485V284.948H122.029H111.647H101.264H90.8811H80.4984H70.1156H59.733H49.3502H38.9675H28.5848H18.2021H7.81934V280.785V276.623V272.461V268.298V264.136V259.974V255.812V251.649V247.487V243.325V239.162V235H7.2511H6.68286H6.1145H5.54626H4.97791H4.40967H3.84143H3.27307H2.70483H2.1366H1.56824H1V239.7V244.4V249.1V253.799V258.499V263.199V267.899V272.599V277.299V281.999V286.699V291.398H11.951H22.902H33.853H44.8041H55.755H66.7059H77.657H88.6079H99.5591H110.51H121.461H131.865H132.412Z" fill="black"/>
<path fill-rule="evenodd" clip-rule="evenodd" d="M0 234H8.81934V283.948H133.412V292.398H0V234ZM2 236V290.398H131.412V285.948H6.81934V236H2Z" fill="black"/>
<path d="M160 1V1.53754V2.07513V2.61279V3.15027V3.68793V4.22552V4.76306V5.30066V5.83826V6.37579V6.91333V7.45087H170.383H180.766H191.148H201.531H211.914H222.296H232.679H243.062H253.445H263.827H274.21H284.593V11.6132V15.7754V19.9377V24.1V28.2623V32.4246V36.5869V40.7493V44.9115V49.0739V53.2361V57.3984H285.161H285.729H286.297H286.866H287.434H288.002H288.571H289.139H289.707H290.276H290.844H291.412V52.6985V47.9987V43.2988V38.599V33.899V29.1992V24.4993V19.7994V15.0995V10.3997V5.69977V1H280.461H269.51H258.559H247.608H236.657H225.706H214.755H203.804H192.853H181.902H170.951H160.548H160Z" fill="black"/>
<path fill-rule="evenodd" clip-rule="evenodd" d="M159 0H292.412V58.3984H283.593V8.45087H159V0ZM161 2V6.45087H285.593V56.3984H290.412V2H161Z" fill="black"/>
</g>
<defs>
<clipPath id="clip0_4_2">
<rect width="292" height="292" fill="white"/>
</clipPath>
</defs>
</svg>
